<svg width="40" height="40" viewBox="0 0 40 40" fill="none" xmlns="http://www.w3.org/2000/svg">
<g clip-path="url(#clip0_479_50)">
<rect width="40" height="40" fill="#131316"/>
<g filter="url(#filter0_f_479_50)">
<path d="M33.0098 30.95C33.5201 30.3446 33.072 29.4658 32.2803 29.4533C23.8988 29.3212 16.8335 29.4776 8.16804 29.9992C7.37723 30.0468 6.96823 30.9453 7.50564 31.5274C10.6123 34.8925 15.0615 37 20.003 37C25.2214 37 29.8907 34.6497 33.0098 30.95Z" stroke="#4C4CFF" stroke-linecap="round" stroke-linejoin="round"/>
<path d="M5.38201 11.3166C4.98093 11.9902 5.5533 12.7814 6.33179 12.6887C15.9418 11.5448 23.1075 11.2008 33.1479 11.7984C33.9347 11.8452 34.4615 11.0149 34.0142 10.3659C30.9478 5.91656 25.8161 3 20.003 3C13.7853 3 8.34719 6.33659 5.38201 11.3166Z" stroke="#4C4CFF" stroke-linecap="round" stroke-linejoin="round"/>
</g>
<g filter="url(#filter1_f_479_50)">
<path d="M33.0098 30.95C33.5201 30.3446 33.072 29.4658 32.2803 29.4533C23.8988 29.3212 16.8335 29.4776 8.16804 29.9992C7.37723 30.0468 6.96823 30.9453 7.50564 31.5274C10.6123 34.8925 15.0615 37 20.003 37C25.2214 37 29.8907 34.6497 33.0098 30.95Z" stroke="#4C4CFF" stroke-linecap="round" stroke-linejoin="round"/>
<path d="M5.38201 11.3166C4.98093 11.9902 5.5533 12.7814 6.33179 12.6887C15.9418 11.5448 23.1075 11.2008 33.1479 11.7984C33.9347 11.8452 34.4615 11.0149 34.0142 10.3659C30.9478 5.91656 25.8161 3 20.003 3C13.7853 3 8.34719 6.33659 5.38201 11.3166Z" stroke="#4C4CFF" stroke-linecap="round" stroke-linejoin="round"/>
</g>
<path d="M33.0098 30.95C33.5201 30.3446 33.072 29.4658 32.2803 29.4533C23.8988 29.3212 16.8335 29.4776 8.16804 29.9992C7.37723 30.0468 6.96823 30.9453 7.50564 31.5274C10.6123 34.8925 15.0615 37 20.003 37C25.2214 37 29.8907 34.6497 33.0098 30.95Z" stroke="#4C4CFF" stroke-linecap="round" stroke-linejoin="round"/>
<path d="M5.38201 11.3166C4.98093 11.9902 5.5533 12.7814 6.33179 12.6887C15.9418 11.5448 23.1075 11.2008 33.1479 11.7984C33.9347 11.8452 34.4615 11.0149 34.0142 10.3659C30.9478 5.91656 25.8161 3 20.003 3C13.7853 3 8.34719 6.33659 5.38201 11.3166Z" stroke="#4C4CFF" stroke-linecap="round" stroke-linejoin="round"/>
<path d="M33.0098 30.95C33.5201 30.3446 33.072 29.4658 32.2803 29.4533C23.8988 29.3212 16.8335 29.4776 8.16804 29.9992C7.37723 30.0468 6.96823 30.9453 7.50564 31.5274C10.6123 34.8925 15.0615 37 20.003 37C25.2214 37 29.8907 34.6497 33.0098 30.95Z" stroke="white" stroke-width="0.5" stroke-linecap="round" stroke-linejoin="round"/>
<path d="M5.38201 11.3166C4.98093 11.9902 5.5533 12.7814 6.33179 12.6887C15.9418 11.5448 23.1075 11.2008 33.1479 11.7984C33.9347 11.8452 34.4615 11.0149 34.0142 10.3659C30.9478 5.91656 25.8161 3 20.003 3C13.7853 3 8.34719 6.33659 5.38201 11.3166Z" stroke="white" stroke-width="0.5" stroke-linecap="round" stroke-linejoin="round"/>
<g filter="url(#filter2_f_479_50)">
<path d="M36.8437 22.3768C36.9898 21.3268 36.1725 20.4242 35.1157 20.34C24.3939 19.4852 15.9529 19.3489 4.88936 19.9212C3.83017 19.976 2.98762 20.8562 3.10469 21.9104C3.22716 23.0131 3.45512 24.084 3.77826 25.1127C4.02984 25.9136 4.81146 26.4067 5.65047 26.3779C16.1122 26.0189 24.257 25.9922 34.406 26.263C35.2455 26.2854 36.0235 25.786 36.2687 24.9828C36.5259 24.1401 36.7195 23.2696 36.8437 22.3768Z" stroke="#E33CD5" stroke-linecap="round" stroke-linejoin="round"/>
</g>
<g filter="url(#filter3_f_479_50)">
<path d="M36.8437 22.3768C36.9898 21.3268 36.1725 20.4242 35.1157 20.34C24.3939 19.4852 15.9529 19.3489 4.88936 19.9212C3.83017 19.976 2.98762 20.8562 3.10469 21.9104C3.22716 23.0131 3.45512 24.084 3.77826 25.1127C4.02984 25.9136 4.81146 26.4067 5.65047 26.3779C16.1122 26.0189 24.257 25.9922 34.406 26.263C35.2455 26.2854 36.0235 25.786 36.2687 24.9828C36.5259 24.1401 36.7195 23.2696 36.8437 22.3768Z" stroke="#E33CD5" stroke-linecap="round" stroke-linejoin="round"/>
</g>
<path d="M36.8437 22.3768C36.9898 21.3268 36.1725 20.4242 35.1157 20.34C24.3939 19.4852 15.9529 19.3489 4.88936 19.9212C3.83017 19.976 2.98762 20.8562 3.10469 21.9104C3.22716 23.0131 3.45512 24.084 3.77826 25.1127C4.02984 25.9136 4.81146 26.4067 5.65047 26.3779C16.1122 26.0189 24.257 25.9922 34.406 26.263C35.2455 26.2854 36.0235 25.786 36.2687 24.9828C36.5259 24.1401 36.7195 23.2696 36.8437 22.3768Z" stroke="#E33CD5" stroke-linecap="round" stroke-linejoin="round"/>
<path d="M36.8437 22.3768C36.9898 21.3268 36.1725 20.4242 35.1157 20.34C24.3939 19.4852 15.9529 19.3489 4.88936 19.9212C3.83017 19.976 2.98762 20.8562 3.10469 21.9104C3.22716 23.0131 3.45512 24.084 3.77826 25.1127C4.02984 25.9136 4.81146 26.4067 5.65047 26.3779C16.1122 26.0189 24.257 25.9922 34.406 26.263C35.2455 26.2854 36.0235 25.786 36.2687 24.9828C36.5259 24.1401 36.7195 23.2696 36.8437 22.3768Z" stroke="white" stroke-width="0.5" stroke-linecap="round" stroke-linejoin="round"/>
<g filter="url(#filter4_f_479_50)">
<path d="M3 16.175C5.26667 14.475 7.53333 14.475 9.8 16.175C12.0667 17.875 14.3333 17.875 16.6 16.175C18.8667 14.475 21.1333 14.475 23.4 16.175C25.6667 17.875 27.9333 17.875 30.2 16.175C32.4667 14.475 34.7333 14.475 37 16.175" stroke="#00CCCC" stroke-linecap="round" stroke-linejoin="round"/>
</g>
<g filter="url(#filter5_f_479_50)">
<path d="M3 16.175C5.26667 14.475 7.53333 14.475 9.8 16.175C12.0667 17.875 14.3333 17.875 16.6 16.175C18.8667 14.475 21.1333 14.475 23.4 16.175C25.6667 17.875 27.9333 17.875 30.2 16.175C32.4667 14.475 34.7333 14.475 37 16.175" stroke="#00CCCC" stroke-linecap="round" stroke-linejoin="round"/>
</g>
<path d="M3 16.175C5.26667 14.475 7.53333 14.475 9.8 16.175C12.0667 17.875 14.3333 17.875 16.6 16.175C18.8667 14.475 21.1333 14.475 23.4 16.175C25.6667 17.875 27.9333 17.875 30.2 16.175C32.4667 14.475 34.7333 14.475 37 16.175" stroke="#00CCCC" stroke-linecap="round" stroke-linejoin="round"/>
<path d="M3 16.175C5.26667 14.475 7.53333 14.475 9.8 16.175C12.0667 17.875 14.3333 17.875 16.6 16.175C18.8667 14.475 21.1333 14.475 23.4 16.175C25.6667 17.875 27.9333 17.875 30.2 16.175C32.4667 14.475 34.7333 14.475 37 16.175" stroke="white" stroke-width="0.5" stroke-linecap="round" stroke-linejoin="round"/>
<g filter="url(#filter6_f_479_50)">
<ellipse cx="0.85" cy="0.6375" rx="0.85" ry="0.6375" transform="matrix(0.885492 0.464655 0.464655 -0.885492 13.2021 32.9039)" stroke="#4C4CFF"/>
<ellipse cx="27.4032" cy="8.40128" rx="1.275" ry="0.85" transform="rotate(15 27.4032 8.40128)" stroke="#4C4CFF"/>
<ellipse cx="0.85" cy="0.6375" rx="0.85" ry="0.6375" transform="matrix(0.965926 -0.258819 -0.258819 -0.965926 24.583 33.5719)" stroke="#4C4CFF"/>
<ellipse cx="18.727" cy="8.95005" rx="1.275" ry="0.85" transform="rotate(180 18.727 8.95005)" stroke="#4C4CFF"/>
<ellipse cx="22.3036" cy="5.8511" rx="1.275" ry="0.85" transform="rotate(15 22.3036 5.8511)" stroke="#4C4CFF"/>
<ellipse cx="0.85" cy="0.6375" rx="0.85" ry="0.6375" transform="matrix(1 0 0 -1 19.1504 34.8754)" stroke="#4C4CFF"/>
<ellipse cx="13.0249" cy="7.74532" rx="1.275" ry="0.85" transform="rotate(-27.6879 13.0249 7.74532)" stroke="#4C4CFF"/>
</g>
<g filter="url(#filter7_f_479_50)">
<ellipse cx="0.85" cy="0.6375" rx="0.85" ry="0.6375" transform="matrix(0.885492 0.464655 0.464655 -0.885492 13.2021 32.9039)" stroke="#4C4CFF"/>
<ellipse cx="27.4032" cy="8.40128" rx="1.275" ry="0.85" transform="rotate(15 27.4032 8.40128)" stroke="#4C4CFF"/>
<ellipse cx="0.85" cy="0.6375" rx="0.85" ry="0.6375" transform="matrix(0.965926 -0.258819 -0.258819 -0.965926 24.583 33.5719)" stroke="#4C4CFF"/>
<ellipse cx="18.727" cy="8.95005" rx="1.275" ry="0.85" transform="rotate(180 18.727 8.95005)" stroke="#4C4CFF"/>
<ellipse cx="22.3036" cy="5.8511" rx="1.275" ry="0.85" transform="rotate(15 22.3036 5.8511)" stroke="#4C4CFF"/>
<ellipse cx="0.85" cy="0.6375" rx="0.85" ry="0.6375" transform="matrix(1 0 0 -1 19.1504 34.8754)" stroke="#4C4CFF"/>
<ellipse cx="13.0249" cy="7.74532" rx="1.275" ry="0.85" transform="rotate(-27.6879 13.0249 7.74532)" stroke="#4C4CFF"/>
</g>
<ellipse cx="0.85" cy="0.6375" rx="0.85" ry="0.6375" transform="matrix(0.885492 0.464655 0.464655 -0.885492 13.2021 32.9039)" stroke="#4C4CFF"/>
<ellipse cx="27.4032" cy="8.40128" rx="1.275" ry="0.85" transform="rotate(15 27.4032 8.40128)" stroke="#4C4CFF"/>
<ellipse cx="0.85" cy="0.6375" rx="0.85" ry="0.6375" transform="matrix(0.965926 -0.258819 -0.258819 -0.965926 24.583 33.5719)" stroke="#4C4CFF"/>
<ellipse cx="18.727" cy="8.95005" rx="1.275" ry="0.85" transform="rotate(180 18.727 8.95005)" stroke="#4C4CFF"/>
<ellipse cx="22.3036" cy="5.8511" rx="1.275" ry="0.85" transform="rotate(15 22.3036 5.8511)" stroke="#4C4CFF"/>
<ellipse cx="0.85" cy="0.6375" rx="0.85" ry="0.6375" transform="matrix(1 0 0 -1 19.1504 34.8754)" stroke="#4C4CFF"/>
<ellipse cx="13.0249" cy="7.74532" rx="1.275" ry="0.85" transform="rotate(-27.6879 13.0249 7.74532)" stroke="#4C4CFF"/>
<ellipse cx="0.85" cy="0.6375" rx="0.85" ry="0.6375" transform="matrix(0.885492 0.464655 0.464655 -0.885492 13.2021 32.9039)" stroke="white" stroke-width="0.5"/>
<ellipse cx="27.4032" cy="8.40128" rx="1.275" ry="0.85" transform="rotate(15 27.4032 8.40128)" stroke="white" stroke-width="0.5"/>
<ellipse cx="0.85" cy="0.6375" rx="0.85" ry="0.6375" transform="matrix(0.965926 -0.258819 -0.258819 -0.965926 24.583 33.5719)" stroke="white" stroke-width="0.5"/>
<ellipse cx="18.727" cy="8.95005" rx="1.275" ry="0.85" transform="rotate(180 18.727 8.95005)" stroke="white" stroke-width="0.5"/>
<ellipse cx="22.3036" cy="5.8511" rx="1.275" ry="0.85" transform="rotate(15 22.3036 5.8511)" stroke="white" stroke-width="0.5"/>
<ellipse cx="0.85" cy="0.6375" rx="0.85" ry="0.6375" transform="matrix(1 0 0 -1 19.1504 34.8754)" stroke="white" stroke-width="0.5"/>
<ellipse cx="13.0249" cy="7.74532" rx="1.275" ry="0.85" transform="rotate(-27.6879 13.0249 7.74532)" stroke="white" stroke-width="0.5"/>
</g>
<defs>
<filter id="filter0_f_479_50" x="0.744141" y="-1.5" width="37.9404" height="43" filterUnits="userSpaceOnUse" color-interpolation-filters="sRGB">
<feFlood flood-opacity="0" result="BackgroundImageFix"/>
<feBlend mode="normal" in="SourceGraphic" in2="BackgroundImageFix" result="shape"/>
<feGaussianBlur stdDeviation="2" result="effect1_foregroundBlur_479_50"/>
</filter>
<filter id="filter1_f_479_50" x="0.744141" y="-1.5" width="37.9404" height="43" filterUnits="userSpaceOnUse" color-interpolation-filters="sRGB">
<feFlood flood-opacity="0" result="BackgroundImageFix"/>
<feBlend mode="normal" in="SourceGraphic" in2="BackgroundImageFix" result="shape"/>
<feGaussianBlur stdDeviation="2" result="effect1_foregroundBlur_479_50"/>
</filter>
<filter id="filter2_f_479_50" x="-1.40625" y="15.0752" width="42.7676" height="15.804" filterUnits="userSpaceOnUse" color-interpolation-filters="sRGB">
<feFlood flood-opacity="0" result="BackgroundImageFix"/>
<feBlend mode="normal" in="SourceGraphic" in2="BackgroundImageFix" result="shape"/>
<feGaussianBlur stdDeviation="2" result="effect1_foregroundBlur_479_50"/>
</filter>
<filter id="filter3_f_479_50" x="-1.40625" y="15.0752" width="42.7676" height="15.804" filterUnits="userSpaceOnUse" color-interpolation-filters="sRGB">
<feFlood flood-opacity="0" result="BackgroundImageFix"/>
<feBlend mode="normal" in="SourceGraphic" in2="BackgroundImageFix" result="shape"/>
<feGaussianBlur stdDeviation="2" result="effect1_foregroundBlur_479_50"/>
</filter>
<filter id="filter4_f_479_50" x="-1.5" y="10.4" width="43" height="11.55" filterUnits="userSpaceOnUse" color-interpolation-filters="sRGB">
<feFlood flood-opacity="0" result="BackgroundImageFix"/>
<feBlend mode="normal" in="SourceGraphic" in2="BackgroundImageFix" result="shape"/>
<feGaussianBlur stdDeviation="2" result="effect1_foregroundBlur_479_50"/>
</filter>
<filter id="filter5_f_479_50" x="-1.5" y="10.4" width="43" height="11.55" filterUnits="userSpaceOnUse" color-interpolation-filters="sRGB">
<feFlood flood-opacity="0" result="BackgroundImageFix"/>
<feBlend mode="normal" in="SourceGraphic" in2="BackgroundImageFix" result="shape"/>
<feGaussianBlur stdDeviation="2" result="effect1_foregroundBlur_479_50"/>
</filter>
<filter id="filter6_f_479_50" x="7.32812" y="0.465942" width="25.8271" height="38.9094" filterUnits="userSpaceOnUse" color-interpolation-filters="sRGB">
<feFlood flood-opacity="0" result="BackgroundImageFix"/>
<feBlend mode="normal" in="SourceGraphic" in2="BackgroundImageFix" result="shape"/>
<feGaussianBlur stdDeviation="2" result="effect1_foregroundBlur_479_50"/>
</filter>
<filter id="filter7_f_479_50" x="7.32812" y="0.465942" width="25.8271" height="38.9094" filterUnits="userSpaceOnUse" color-interpolation-filters="sRGB">
<feFlood flood-opacity="0" result="BackgroundImageFix"/>
<feBlend mode="normal" in="SourceGraphic" in2="BackgroundImageFix" result="shape"/>
<feGaussianBlur stdDeviation="2" result="effect1_foregroundBlur_479_50"/>
</filter>
<clipPath id="clip0_479_50">
<rect width="40" height="40" fill="white"/>
</clipPath>
</defs>
</svg>
