<svg viewBox="0 0 324 295" fill="none" xmlns="http://www.w3.org/2000/svg"><path d="M109.904 235.9C122.577 214.221 141.996 181.003 161.393 147.836L150.446 165C146.202 170.678 143.763 173.837 138.715 179.2C133.013 184.591 129.389 186.847 122.046 189.284C114.21 191.276 109.797 191.754 101.878 190.93C96.1938 190.056 93.0401 188.786 87.4719 185.374C81.565 180.222 78.8502 177.002 74.5068 170.968L57.9119 147.089L109.904 235.9Z" fill="black"/><path d="M162.128 146.684L214.532 236.478L266.507 146.932L252.109 167.881C247.482 174.653 244.784 178.185 239.35 182.904C233.162 186.577 229.445 188.155 222.269 189.901C215.648 191.413 211.821 191.321 204.776 189.284C198.047 186.587 194.157 184.524 186.872 179.2C181.241 174.364 178.621 171.153 173.906 165L162.128 146.684Z" fill="black"/><path d="M162.128 146.684C162.128 146.684 99.8124 39.6769 95.0826 31.8529C90.3528 24.029 75.947 14.9739 68.7402 13.5368C61.5333 12.0998 50.4283 11.887 44.4562 13.5369C38.4841 15.1867 30.8776 17.0319 23.2591 26.3413C15.6407 35.6508 13.1791 45.8434 12.7635 49.5514C12.3479 53.2595 10.2979 65.8057 15.0273 73.8353C19.7566 81.8649 57.9119 147.089 57.9119 147.089M162.128 146.684L173.906 165C178.621 171.153 181.241 174.364 186.872 179.2C194.157 184.524 198.047 186.587 204.776 189.284C211.821 191.321 215.648 191.413 222.269 189.901C229.445 188.155 233.162 186.577 239.35 182.904C244.784 178.185 247.482 174.653 252.109 167.881L266.507 146.932M162.128 146.684L161.393 147.836M162.128 146.684L214.532 236.478M57.9119 147.089L18.3243 214.185C13.0023 225.265 11.5152 231.286 11.9447 241.556C13.4239 251.335 15.3305 255.694 20.1765 261.93C28.0606 270.07 32.7703 273.687 41.5794 278.805C52.6923 283.192 59.152 283.208 70.9543 280.249C81.3552 276.147 86.7156 271.728 95.5313 260.49C95.5313 260.49 101.083 250.99 109.904 235.9M57.9119 147.089C57.9119 147.089 120.862 40.4927 125.055 33.2898C129.248 26.0869 134.6 20.5304 140.156 17.0319C145.712 13.5333 153.945 11.6843 161.559 11.6843C169.173 11.6843 176.377 14.3534 182.138 17.0319C187.9 19.7104 192.223 22.5884 196.338 27.7333C200.454 32.8782 201.483 34.5246 203.953 39.0521C206.423 43.5797 266.507 146.932 266.507 146.932M57.9119 147.089L74.5068 170.968C78.8502 177.002 81.565 180.222 87.4719 185.374C93.0401 188.786 96.1938 190.056 101.878 190.93C109.797 191.754 114.21 191.276 122.046 189.284C129.389 186.847 133.013 184.591 138.715 179.2C143.763 173.837 146.202 170.678 150.446 165L161.393 147.836M57.9119 147.089L109.904 235.9M266.507 146.932L304.393 212.269C308.485 220.991 310.358 226.034 311.584 235.794C312.305 246.989 310.952 252.249 305.616 259.872C299.492 267.417 295.688 271.021 288.124 276.13C281.487 280.125 277.547 281.413 270.219 282.307C260.495 282.311 255.11 281.495 245.73 277.365C238.182 273.464 234.262 269.409 227.825 259.255L214.532 236.478M266.507 146.932C266.507 146.932 304.998 80.6293 307.262 76.716C309.526 72.8028 312.408 62.3134 311.79 53.6668C311.173 45.0202 307.262 38.2289 305.205 34.7335C303.147 31.2381 296.561 22.7942 291.005 19.2988C285.448 15.8033 278.863 12.2986 267.75 11.6843C256.637 11.07 246.552 16.0029 241.202 19.7104C235.852 23.4178 230.089 30.8203 226.796 36.1741C225.175 38.8107 193.315 93.2529 161.393 147.836M266.507 146.932L214.532 236.478M109.904 235.9C122.577 214.221 141.996 181.003 161.393 147.836M109.904 235.9L125.747 262.962C132.034 271.516 136.071 275.535 144.886 280.249C154.026 283.897 159.258 284.27 168.759 282.307C179.149 279.958 184.143 277.526 192.014 271.811C198.258 265.463 201.871 259.901 208.477 246.91L214.532 236.478" stroke="black" stroke-width="23" stroke-linecap="round" stroke-linejoin="round"/></svg>